<?xml version="1.0" encoding="utf-8"?>
<!-- Generator: Adobe Illustrator 22.0.1, SVG Export Plug-In . SVG Version: 6.00 Build 0)  -->
<!DOCTYPE svg PUBLIC "-//W3C//DTD SVG 1.1//EN" "http://www.w3.org/Graphics/SVG/1.1/DTD/svg11.dtd">
<svg version="1.1" id="Capa_1" xmlns="http://www.w3.org/2000/svg" xmlns:xlink="http://www.w3.org/1999/xlink" x="0px" y="0px"
	 viewBox="0 0 512 512" style="enable-background:new 0 0 512 512;" xml:space="preserve">
<style type="text/css">
	.st0{fill:#FFA800;}
	.st1{fill:#FEDD0A;}
	.st2{fill:#FFFFFF;}
</style>
<polygon class="st0" points="460.8,332.8 460.8,366.9 358.4,418.1 358.4,384 "/>
<polygon class="st0" points="460.8,196.3 119.5,25.6 119.5,128 460.8,298.7 494.9,281.6 494.9,179.2 "/>
<polygon class="st1" points="494.9,179.2 153.6,8.5 127.2,21.7 119.5,17.9 119.5,128 435.2,285.9 435.2,183.5 460.8,196.3 "/>
<path class="st1" d="M102.4,298.7l-51.2,25.6"/>
<polygon class="st2" points="358.4,384 358.4,418.1 17.1,247.5 17.1,213.3 "/>
<path class="st1" d="M341.3,469.3l102.4-51.2"/>
<path class="st1" d="M51.2,196.3l85.3,42.7"/>
<path class="st1" d="M170.7,256l68.3,34.1"/>
<path class="st1" d="M273.1,307.2l34.1,17.1"/>
<path class="st1" d="M341.3,341.3l51.2,25.6"/>
<path class="st1" d="M426.7,349.9l-136.5-68.3"/>
<polygon class="st0" points="460.8,332.8 358.4,384 17.1,213.3 119.5,162.1 "/>
<polygon class="st2" points="430.9,317.9 332.8,366.9 21.3,211.2 119.5,162.1 "/>
<polygon class="st1" points="452.3,334.9 140.8,179.2 44.8,227.2 42.7,226.1 42.7,256 358.4,413.9 358.4,384 356.3,382.9 "/>
<path class="st1" d="M256,264.5l-34.1-17.1"/>
<path class="st1" d="M187.7,230.4L85.3,179.2"/>
<path class="st1" d="M119.5,93.9l68.3,34.1"/>
<path class="st1" d="M221.9,145.1l34.1,17.1"/>
<path class="st1" d="M290.1,179.2l85.3,42.7"/>
<path class="st1" d="M409.6,238.9l51.2,25.6"/>
<path class="st1" d="M119.5,59.7l34.1,17.1"/>
<path class="st1" d="M187.7,93.9l85.3,42.7"/>
<path class="st1" d="M307.2,153.6l51.2,25.6"/>
<path class="st1" d="M392.5,196.3l68.3,34.1"/>
<path d="M503.3,177.5c0-0.1,0-0.1,0-0.2c0-0.2-0.1-0.4-0.1-0.5c0-0.1-0.1-0.2-0.1-0.3c0-0.1-0.1-0.3-0.2-0.4c0-0.1-0.1-0.2-0.1-0.3
	c-0.1-0.1-0.1-0.3-0.2-0.4c0-0.1-0.1-0.2-0.1-0.3c-0.1-0.2-0.2-0.3-0.3-0.5c0-0.1-0.1-0.1-0.1-0.2c-0.1-0.2-0.3-0.4-0.5-0.6
	c0,0,0,0,0,0c-0.2-0.2-0.3-0.4-0.5-0.6c0,0-0.1-0.1-0.1-0.1c-0.1-0.1-0.3-0.3-0.4-0.4c-0.1-0.1-0.1-0.1-0.2-0.2
	c-0.1-0.1-0.3-0.2-0.4-0.3c-0.1-0.1-0.2-0.1-0.3-0.2c-0.1-0.1-0.3-0.2-0.4-0.2c-0.1-0.1-0.2-0.1-0.3-0.2c0,0-0.1,0-0.1-0.1
	L157.4,0.9c-2.4-1.2-5.2-1.2-7.6,0L115.6,18c-2.9,1.4-4.7,4.4-4.7,7.6V128c0,1.5,0.4,2.8,1.1,4.1c0,0,0.1,0.1,0.1,0.1
	c0.1,0.2,0.2,0.4,0.3,0.5c0.1,0.1,0.2,0.2,0.2,0.3c0.1,0.1,0.2,0.3,0.3,0.4c0.2,0.2,0.4,0.4,0.6,0.7c0.1,0.1,0.2,0.2,0.3,0.3
	c0.2,0.1,0.3,0.3,0.5,0.4c0.1,0.1,0.2,0.1,0.3,0.2c0.3,0.2,0.6,0.4,0.9,0.5l12.4,6.2v15.1l-4.7-2.4c-2.4-1.2-5.2-1.2-7.6,0
	L13.2,205.7c-2.9,1.4-4.7,4.4-4.7,7.6v34.1c0,3.2,1.8,6.2,4.7,7.6l29.4,14.7v54.2c0,0,0,0,0,0.1v34.3c0,4.7,3.8,8.5,8.5,8.5
	s8.5-3.8,8.5-8.5v-28.9l46.5-23.2c1.4-0.7,2.6-1.8,3.3-3l223.2,111.6v54.2c0,0,0,0.1,0,0.1v34.2c0,4.7,3.8,8.5,8.5,8.5
	s8.5-3.8,8.5-8.5v-28.9l85.3-42.7v20.3c0,2.3,0.9,4.4,2.5,6c1.6,1.6,3.8,2.5,6,2.5c2.3,0,4.4-0.9,6-2.5c1.6-1.6,2.5-3.8,2.5-6v-33.5
	c0,0,0-0.1,0-0.1c0-0.4,0-0.8,0-1.2v-36.7l12.3-6.2c2.9-1.4,4.7-4.4,4.7-7.6v-34.1c0-0.9-0.1-1.7-0.4-2.5c0,0,0-0.1,0-0.1
	c-0.1-0.2-0.1-0.4-0.2-0.6c0,0,0-0.1-0.1-0.1c-0.1-0.2-0.2-0.4-0.3-0.6c0,0,0-0.1,0-0.1c-0.5-0.9-1.2-1.8-2-2.5c0,0,0,0-0.1-0.1
	c-0.2-0.1-0.4-0.3-0.5-0.4c0,0-0.1-0.1-0.1-0.1c-0.2-0.1-0.3-0.2-0.5-0.3c-0.1,0-0.1-0.1-0.2-0.1c-0.1,0-0.1-0.1-0.2-0.1l-12.4-6.2
	v-15l4.7,2.4c1.2,0.6,2.5,0.9,3.8,0.9c1.3,0,2.6-0.3,3.8-0.9l34.1-17.1c2.9-1.4,4.7-4.4,4.7-7.6V179.2c0,0,0,0,0,0
	C503.5,178.6,503.4,178.1,503.3,177.5z M153.6,18.1l327,163.5l-19.8,9.9L133.8,28L153.6,18.1z M128,122.7v-19.8l57.8,28.9
	c0.6,0.3,1.2,0.4,1.9,0.4c2,0,3.7-1.4,4.2-3.3c0.5-1.9-0.5-3.9-2.2-4.8L128,93.4V68.8l23.7,11.8c0.6,0.3,1.2,0.4,1.9,0.5
	c2,0,3.7-1.4,4.2-3.3c0.5-1.9-0.5-3.9-2.2-4.8L128,59.2V34.6l328.5,164.3v24.6l-62.1-31c-1.4-0.7-3-0.6-4.3,0.2s-2,2.3-1.9,3.8
	c0.1,1.5,1,2.9,2.4,3.6l65.9,33v24.6l-45-22.5c-1.4-0.7-3-0.6-4.3,0.2c-1.3,0.8-2,2.3-1.9,3.8c0.1,1.5,1,2.9,2.4,3.6l48.8,24.4V287
	L128,122.7z M119.5,171.7l30.3,15.2c0,0,0,0,0,0l296.7,148.3l-19.8,9.9L292,277.8c-1.4-0.7-3-0.6-4.3,0.2c-1.3,0.8-2,2.3-1.9,3.8
	c0.1,1.5,1,2.9,2.4,3.6l128.9,64.5l-24.6,12.3l-49.3-24.6c-1.4-0.7-3-0.6-4.3,0.2c-1.3,0.8-2,2.3-1.9,3.8c0.1,1.5,1,2.9,2.4,3.6
	l43.6,21.8l-24.6,12.3l-327-163.5L56,203.4l78.7,39.3c0.6,0.3,1.2,0.4,1.9,0.5c2,0,3.7-1.4,4.2-3.3s-0.5-3.9-2.2-4.8l-72.9-36.5
	l24.6-12.3l95.7,47.9c0.6,0.3,1.2,0.4,1.9,0.5c2,0,3.7-1.4,4.2-3.3c0.5-1.9-0.5-3.9-2.2-4.8l-90-45L119.5,171.7z M362.7,406.5v-19.8
	l89.6-44.8v19.8L362.7,406.5z M25.6,222.4l328.5,164.3v19.8L25.6,242.2V222.4z M59.7,310.5v-32.1l32.1,16.1L59.7,310.5z
	 M349.9,423.4l4.7,2.4c1.2,0.6,2.5,0.9,3.8,0.9s2.6-0.3,3.8-0.9l21.8-10.9v23.6l-34.1,17.1V423.4z M435.2,412.9l-34.1,17.1v-23.6
	l34.1-17.1V412.9z M435.2,310.5L157.4,171.6c0,0,0,0,0,0l-12.3-6.2v-15.1l290.1,145.1V310.5z M465.1,287v-88.1l21.3-10.7v88.1
	L465.1,287z"/>
<path d="M240.8,286.3l-68.3-34.1c-2.1-1-4.7-0.2-5.7,1.9s-0.2,4.7,1.9,5.7l68.3,34.1c0.6,0.3,1.2,0.4,1.9,0.5c2,0,3.7-1.4,4.2-3.3
	C243.5,289.2,242.6,287.2,240.8,286.3z"/>
<path d="M271.2,311l34.1,17.1c0.6,0.3,1.2,0.4,1.9,0.5c2,0,3.7-1.4,4.2-3.3c0.5-1.9-0.5-3.9-2.2-4.8L275,303.4
	c-2.1-1-4.7-0.2-5.7,1.9S269.1,310,271.2,311z"/>
<path d="M220,251.3l34.1,17.1c0.6,0.3,1.2,0.4,1.9,0.5c2,0,3.7-1.4,4.2-3.3s-0.5-3.9-2.2-4.8l-34.1-17.1c-2.1-1-4.7-0.2-5.7,1.9
	S217.9,250.2,220,251.3z"/>
<path d="M257.9,158.3l-34.1-17.1c-2.1-1-4.7-0.2-5.7,1.9s-0.2,4.7,1.9,5.7l34.1,17.1c0.6,0.3,1.2,0.4,1.9,0.4c2,0,3.7-1.4,4.2-3.3
	S259.7,159.2,257.9,158.3z"/>
<path d="M377.4,218L292,175.4c-1.4-0.7-3-0.6-4.3,0.2c-1.3,0.8-2,2.3-1.9,3.8c0.1,1.5,1,2.9,2.4,3.6l85.3,42.7
	c0.6,0.3,1.2,0.4,1.9,0.5c2,0,3.7-1.4,4.2-3.3S379.1,218.9,377.4,218z"/>
<path d="M275,132.7L189.6,90c-1.4-0.7-3-0.6-4.3,0.2c-1.3,0.8-2,2.3-1.9,3.8c0.1,1.5,1,2.9,2.4,3.6l85.3,42.7
	c0.6,0.3,1.2,0.4,1.9,0.5c2,0,3.7-1.4,4.2-3.3S276.7,133.6,275,132.7z"/>
<path d="M305.3,157.4l51.2,25.6c0.6,0.3,1.2,0.4,1.9,0.5c2,0,3.7-1.4,4.2-3.3c0.5-1.9-0.5-3.9-2.2-4.8l-51.2-25.6
	c-2.1-1-4.7-0.2-5.7,1.9S303.2,156.4,305.3,157.4z"/>
</svg>
