<?xml version="1.0" encoding="iso-8859-1"?>
<!-- Generator: Adobe Illustrator 19.0.0, SVG Export Plug-In . SVG Version: 6.00 Build 0)  -->
<svg version="1.1" id="Capa_1" xmlns="http://www.w3.org/2000/svg" xmlns:xlink="http://www.w3.org/1999/xlink" x="0px" y="0px"
	 viewBox="0 0 512 512" style="enable-background:new 0 0 512 512;" xml:space="preserve">
<g>
	<polygon style="fill:#FEDD0A;" points="494.932,179.2 460.799,196.267 119.465,25.6 153.598,8.533 	"/>
	<g>
		<polygon style="fill:#FFA800;" points="460.799,332.8 460.799,366.933 358.398,418.133 358.398,384 		"/>
		<polygon style="fill:#FFA800;" points="460.799,196.267 460.799,298.667 119.465,128 119.465,25.6 		"/>
	</g>
	<polygon style="fill:#FEDD0A;" points="435.199,187.733 435.199,285.867 119.465,128 119.465,29.867 	"/>
	<polygon style="fill:#FFA800;" points="494.932,179.2 494.932,281.6 460.799,298.667 460.799,196.267 	"/>
	<path style="fill:#FEDD0A;" d="M102.398,298.667l-51.2,25.6"/>
	<polygon style="fill:#FFFFFF;" points="358.398,384 358.398,418.133 17.065,247.467 17.065,213.333 	"/>
	<g>
		<polygon style="fill:#FEDD0A;" points="358.398,384 358.398,413.867 42.665,256 42.665,226.133 		"/>
		<path style="fill:#FEDD0A;" d="M341.332,469.333l102.4-51.2"/>
		<path style="fill:#FEDD0A;" d="M51.198,196.267l85.333,42.667"/>
		<path style="fill:#FEDD0A;" d="M170.665,256l68.267,34.133"/>
		<path style="fill:#FEDD0A;" d="M273.065,307.2l34.133,17.067"/>
		<path style="fill:#FEDD0A;" d="M341.332,341.333l51.2,25.6"/>
		<path style="fill:#FEDD0A;" d="M426.665,349.867L290.132,281.6"/>
	</g>
	<polygon style="fill:#FFA800;" points="460.799,332.8 358.398,384 17.065,213.333 119.465,162.133 	"/>
	<polygon style="fill:#FFFFFF;" points="430.932,317.867 332.799,366.933 21.332,211.2 119.465,162.133 	"/>
	<g>
		<polygon style="fill:#FEDD0A;" points="452.265,334.933 354.132,384 42.665,228.267 140.799,179.2 		"/>
		<path style="fill:#FEDD0A;" d="M255.999,264.533l-34.133-17.067"/>
		<path style="fill:#FEDD0A;" d="M187.732,230.4l-102.4-51.2"/>
		<path style="fill:#FEDD0A;" d="M119.465,93.867L187.732,128"/>
		<path style="fill:#FEDD0A;" d="M221.865,145.067l34.133,17.067"/>
		<path style="fill:#FEDD0A;" d="M290.132,179.2l85.333,42.667"/>
		<path style="fill:#FEDD0A;" d="M409.599,238.933l51.2,25.6"/>
		<path style="fill:#FEDD0A;" d="M119.465,59.733L153.598,76.8"/>
		<path style="fill:#FEDD0A;" d="M187.732,93.867l85.333,42.667"/>
		<path style="fill:#FEDD0A;" d="M307.199,153.6l51.2,25.6"/>
		<path style="fill:#FEDD0A;" d="M392.532,196.267l68.267,34.133"/>
	</g>
	<g>
		<path d="M460.799,302.933c-1.132,0.001-2.217-0.449-3.018-1.249s-1.25-1.886-1.249-3.018v-102.4
			c0.002-1.616,0.914-3.092,2.358-3.817l34.133-17.067c1.364-0.686,2.991-0.591,4.266,0.249c1.275,0.84,2.004,2.298,1.911,3.822
			c-0.093,1.524-0.993,2.883-2.36,3.562l-31.775,15.888v99.763c0.001,1.132-0.449,2.217-1.249,3.018S461.93,302.934,460.799,302.933
			z"/>
		<path d="M494.923,187.733c-1.322,0.001-2.626-0.307-3.808-0.9L153.598,18.075l-25.6,12.8v91.85l29.417,14.708
			c2.737,1.358,4.54,4.075,4.726,7.125c0.186,3.05-1.272,5.967-3.824,7.647c-2.552,1.681-5.807,1.869-8.536,0.494l-34.133-17.067
			c-2.891-1.445-4.717-4.401-4.717-7.633V25.6c-0.001-3.232,1.825-6.188,4.717-7.633L149.782,0.9c2.403-1.2,5.23-1.2,7.633,0
			l341.333,170.667c3.542,1.77,5.401,5.745,4.49,9.598C502.326,185.018,498.883,187.738,494.923,187.733L494.923,187.733z"/>
		<path d="M136.532,179.2c-4.713,0-8.533-3.821-8.533-8.533v-34.133c0-4.713,3.821-8.533,8.533-8.533s8.533,3.821,8.533,8.533
			v34.133C145.065,175.379,141.245,179.2,136.532,179.2z"/>
		<path d="M358.398,426.667c-1.325,0-2.632-0.308-3.817-0.9L13.248,255.1c-2.891-1.446-4.717-4.401-4.717-7.633v-34.133
			c-0.001-3.232,1.825-6.188,4.717-7.633l102.4-51.2c2.403-1.2,5.23-1.2,7.633,0l34.133,17.067c2.737,1.358,4.54,4.075,4.726,7.125
			c0.186,3.05-1.272,5.967-3.824,7.647c-2.552,1.681-5.807,1.869-8.536,0.494l-30.317-15.158l-93.867,46.933v23.583l332.8,166.4
			l93.867-46.933V332.8c0-4.713,3.82-8.533,8.533-8.533s8.533,3.821,8.533,8.533v34.133c0.001,3.232-1.825,6.188-4.717,7.633
			l-102.4,51.2C361.03,426.359,359.723,426.667,358.398,426.667L358.398,426.667z"/>
		<path d="M358.403,388.267c-1.98,0.003-3.702-1.358-4.157-3.284s0.474-3.914,2.245-4.799l102.4-51.2
			c2.107-1.047,4.664-0.191,5.716,1.913c1.052,2.104,0.203,4.663-1.899,5.721l-102.4,51.2
			C359.716,388.112,359.064,388.266,358.403,388.267z"/>
		<path d="M460.79,341.333c-1.322,0.001-2.626-0.307-3.808-0.9l-307.2-153.6c-4.2-2.117-5.896-7.232-3.792-11.438
			s7.213-5.919,11.426-3.829l307.2,153.6c3.542,1.77,5.401,5.745,4.49,9.598S464.75,341.338,460.79,341.333z"/>
		<path d="M460.799,200.533c-0.662-0.001-1.315-0.155-1.908-0.45L117.557,29.417c-2.102-1.057-2.951-3.616-1.899-5.72
			s3.609-2.96,5.716-1.913L462.707,192.45c1.77,0.885,2.7,2.871,2.245,4.797C464.497,199.173,462.778,200.534,460.799,200.533z"/>
		<path d="M460.799,307.2c-1.325,0-2.632-0.308-3.817-0.9L115.648,135.633c-4.2-2.117-5.896-7.232-3.792-11.438
			c2.103-4.206,7.213-5.919,11.426-3.829l337.517,168.758l25.6-12.8V179.2c0-4.713,3.82-8.533,8.533-8.533s8.533,3.82,8.533,8.533
			v102.4c0.001,3.232-1.825,6.188-4.717,7.633L464.615,306.3C463.43,306.892,462.123,307.2,460.799,307.2z"/>
		<path d="M51.198,366.933c-4.713,0-8.533-3.821-8.533-8.533v-93.867c0-4.713,3.821-8.533,8.533-8.533s8.533,3.821,8.533,8.533
			V358.4C59.732,363.113,55.911,366.933,51.198,366.933z"/>
		<path d="M51.207,332.8c-3.96,0.005-7.403-2.715-8.315-6.569s0.947-7.828,4.49-9.598l51.2-25.6
			c4.213-2.09,9.323-0.378,11.426,3.829c2.103,4.206,0.407,9.321-3.792,11.438l-51.2,25.6C53.833,332.492,52.529,332.8,51.207,332.8
			z"/>
		<path d="M358.398,422.4c-1.132,0.001-2.217-0.449-3.018-1.249s-1.25-1.886-1.249-3.018v-31.496L15.157,217.15
			c-1.367-0.68-2.267-2.038-2.36-3.562c-0.093-1.524,0.636-2.982,1.911-3.822s2.902-0.935,4.266-0.249l341.333,170.667
			c1.445,0.723,2.358,2.201,2.358,3.817v34.133c0.001,1.132-0.449,2.217-1.249,3.018S359.53,422.401,358.398,422.4z"/>
		<path d="M341.332,512c-4.713,0-8.533-3.82-8.533-8.533V409.6c0-4.713,3.82-8.533,8.533-8.533s8.533,3.82,8.533,8.533v93.867
			C349.865,508.18,346.045,512,341.332,512z"/>
		<path d="M443.732,460.8c-2.263,0.001-4.434-0.898-6.035-2.499c-1.6-1.6-2.499-3.771-2.499-6.035v-76.8
			c0-4.713,3.82-8.533,8.533-8.533s8.533,3.82,8.533,8.533v76.8c0.001,2.263-0.898,4.434-2.499,6.035
			C448.166,459.902,445.995,460.801,443.732,460.8z"/>
		<path d="M341.34,477.867c-3.96,0.005-7.403-2.715-8.315-6.569c-0.912-3.854,0.947-7.828,4.49-9.598l102.4-51.2
			c2.729-1.375,5.984-1.187,8.536,0.494c2.552,1.681,4.01,4.598,3.824,7.647c-0.186,3.05-1.989,5.767-4.726,7.125l-102.4,51.2
			C343.967,477.559,342.663,477.867,341.34,477.867L341.34,477.867z"/>
		<path d="M136.528,243.2c-0.661-0.001-1.313-0.155-1.904-0.45L49.29,200.083c-1.367-0.68-2.267-2.038-2.36-3.562
			c-0.093-1.524,0.636-2.982,1.911-3.822c1.275-0.84,2.902-0.935,4.266-0.249l85.333,42.667c1.771,0.885,2.701,2.872,2.245,4.799
			C140.229,241.843,138.508,243.203,136.528,243.2L136.528,243.2z"/>
		<path d="M238.928,294.4c-0.661-0.001-1.313-0.155-1.904-0.45l-68.267-34.133c-2.102-1.057-2.951-3.616-1.899-5.72
			c1.052-2.104,3.609-2.96,5.716-1.913l68.267,34.133c1.771,0.885,2.701,2.872,2.245,4.799
			C242.629,293.043,240.908,294.403,238.928,294.4L238.928,294.4z"/>
		<path d="M307.194,328.533c-0.661-0.001-1.313-0.155-1.904-0.45l-34.133-17.067c-2.102-1.057-2.951-3.616-1.899-5.72
			c1.052-2.104,3.609-2.96,5.716-1.913l34.133,17.067c1.771,0.885,2.701,2.872,2.245,4.799
			C310.896,327.176,309.174,328.536,307.194,328.533L307.194,328.533z"/>
		<path d="M392.528,371.2c-0.661-0.001-1.313-0.155-1.904-0.45l-51.2-25.6c-1.367-0.68-2.267-2.038-2.36-3.562
			c-0.093-1.524,0.636-2.982,1.911-3.822c1.275-0.84,2.902-0.935,4.266-0.249l51.2,25.6c1.771,0.885,2.701,2.872,2.245,4.799
			C396.229,369.843,394.508,371.203,392.528,371.2L392.528,371.2z"/>
		<path d="M426.665,354.133c-0.662-0.001-1.315-0.155-1.908-0.45l-136.533-68.267c-1.367-0.68-2.267-2.038-2.36-3.562
			c-0.093-1.524,0.636-2.982,1.911-3.822c1.275-0.84,2.902-0.935,4.266-0.249l136.533,68.267c1.77,0.885,2.7,2.871,2.245,4.797
			C430.364,352.773,428.644,354.134,426.665,354.133z"/>
		<path d="M255.994,268.8c-0.661-0.001-1.313-0.155-1.904-0.45l-34.133-17.067c-2.102-1.057-2.951-3.616-1.899-5.72
			c1.052-2.104,3.609-2.96,5.716-1.913l34.133,17.067c1.771,0.885,2.701,2.872,2.245,4.799S257.974,268.803,255.994,268.8
			L255.994,268.8z"/>
		<path d="M187.728,234.667c-0.661-0.001-1.313-0.155-1.904-0.45l-102.4-51.2c-1.367-0.68-2.267-2.038-2.36-3.562
			c-0.093-1.524,0.636-2.982,1.911-3.822c1.275-0.84,2.902-0.935,4.266-0.249l102.4,51.2c1.771,0.885,2.701,2.872,2.245,4.799
			C191.429,233.309,189.708,234.669,187.728,234.667L187.728,234.667z"/>
		<path d="M392.532,452.267c-4.713,0-8.533-3.821-8.533-8.533v-42.667c0-4.713,3.821-8.533,8.533-8.533
			c4.713,0,8.533,3.82,8.533,8.533v42.667C401.065,448.446,397.245,452.267,392.532,452.267z"/>
		<path d="M187.728,132.267c-0.661-0.001-1.313-0.155-1.904-0.45l-68.267-34.133c-1.367-0.68-2.267-2.038-2.36-3.562
			c-0.093-1.524,0.636-2.982,1.911-3.822s2.902-0.935,4.266-0.249l68.267,34.133c1.771,0.885,2.701,2.872,2.245,4.799
			C191.429,130.909,189.708,132.269,187.728,132.267L187.728,132.267z"/>
		<path d="M255.994,166.4c-0.661-0.001-1.313-0.155-1.904-0.45l-34.133-17.067c-2.102-1.057-2.951-3.616-1.899-5.72
			c1.052-2.104,3.609-2.96,5.716-1.913l34.133,17.067c1.771,0.885,2.701,2.872,2.245,4.799S257.974,166.403,255.994,166.4
			L255.994,166.4z"/>
		<path d="M375.461,226.133c-0.661-0.001-1.313-0.155-1.904-0.45l-85.333-42.667c-1.367-0.68-2.267-2.038-2.36-3.562
			c-0.093-1.524,0.636-2.982,1.911-3.822c1.275-0.84,2.902-0.935,4.266-0.249l85.333,42.667c1.771,0.885,2.701,2.872,2.245,4.799
			S377.441,226.136,375.461,226.133L375.461,226.133z"/>
		<path d="M460.799,268.8c-0.662-0.001-1.315-0.155-1.908-0.45l-51.2-25.6c-1.367-0.68-2.267-2.038-2.36-3.562
			c-0.093-1.524,0.636-2.982,1.911-3.822c1.275-0.84,2.902-0.935,4.266-0.249l51.2,25.6c1.77,0.885,2.7,2.871,2.245,4.797
			C464.497,267.44,462.778,268.801,460.799,268.8L460.799,268.8z"/>
		<path d="M153.594,81.067c-0.661-0.001-1.313-0.155-1.904-0.45L117.557,63.55c-2.102-1.057-2.951-3.616-1.899-5.72
			c1.052-2.104,3.609-2.96,5.716-1.913l34.133,17.067c1.771,0.885,2.701,2.872,2.245,4.799
			C157.296,79.709,155.574,81.069,153.594,81.067z"/>
		<path d="M273.061,140.8c-0.661-0.001-1.313-0.155-1.904-0.45l-85.333-42.667c-1.367-0.68-2.267-2.038-2.36-3.562
			c-0.093-1.524,0.636-2.982,1.911-3.822c1.275-0.84,2.902-0.935,4.266-0.249l85.333,42.667c1.771,0.885,2.701,2.872,2.245,4.799
			C276.763,139.443,275.041,140.803,273.061,140.8L273.061,140.8z"/>
		<path d="M358.394,183.467c-0.661-0.001-1.313-0.155-1.904-0.45l-51.2-25.6c-2.102-1.057-2.951-3.616-1.899-5.72
			c1.052-2.104,3.609-2.96,5.716-1.913l51.2,25.6c1.771,0.885,2.701,2.872,2.245,4.799
			C362.096,182.109,360.374,183.469,358.394,183.467L358.394,183.467z"/>
		<path d="M460.799,234.667c-0.662-0.001-1.315-0.155-1.908-0.45l-68.267-34.133c-1.367-0.68-2.267-2.038-2.36-3.562
			c-0.093-1.524,0.636-2.982,1.911-3.822c1.275-0.84,2.902-0.935,4.266-0.249l68.267,34.133c1.77,0.885,2.7,2.871,2.245,4.797
			C464.497,233.307,462.778,234.667,460.799,234.667z"/>
		<path d="M443.732,332.8c-2.263,0.001-4.434-0.898-6.035-2.499c-1.6-1.6-2.499-3.771-2.499-6.035v-34.133
			c0-4.713,3.82-8.533,8.533-8.533s8.533,3.82,8.533,8.533v34.133c0.001,2.263-0.898,4.434-2.499,6.035
			C448.166,331.902,445.995,332.801,443.732,332.8L443.732,332.8z"/>
	</g>
</g>
<g>
</g>
<g>
</g>
<g>
</g>
<g>
</g>
<g>
</g>
<g>
</g>
<g>
</g>
<g>
</g>
<g>
</g>
<g>
</g>
<g>
</g>
<g>
</g>
<g>
</g>
<g>
</g>
<g>
</g>
</svg>
